<?xml version="1.0" encoding="UTF-8"?>
<!DOCTYPE svg PUBLIC "-//W3C//DTD SVG 1.1//EN" "http://www.w3.org/Graphics/SVG/1.1/DTD/svg11.dtd">
<!-- Creator: CorelDRAW -->
<svg xmlns="http://www.w3.org/2000/svg" xml:space="preserve" width="8.73721in" height="2.55024in" version="1.1" style="shape-rendering:geometricPrecision; text-rendering:geometricPrecision; image-rendering:optimizeQuality; fill-rule:evenodd; clip-rule:evenodd"
viewBox="0 0 1734.3 506.21"
 xmlns:xlink="http://www.w3.org/1999/xlink"
 xmlns:xodm="http://www.corel.com/coreldraw/odm/2003">
 <defs>
  <style type="text/css">
   <![CDATA[
    .fil0 {fill:#402313;fill-rule:nonzero}
   ]]>
  </style>
    <clipPath id="id0">
     <path d="M-0 4.91l1734.3 0 0 501.3 -1734.3 0 0 -501.3z"/>
    </clipPath>
 </defs>
 <g id="Layer_x0020_1">
  <metadata id="CorelCorpID_0Corel-Layer"/>
  <g id="_2588128405200">
   <g style="clip-path:url(#id0)">
    <image x="-0" y="4.91" width="1734.3" height="501.3" xlink:href="logo_Images\logo_ImgID1.png"/>
   </g>
  </g>
  <g id="_2588128404192">
   <path class="fil0" d="M14.87 128.59c0,-17.09 9.71,-29.78 29.14,-38.07 19.42,-8.29 42.86,-12.56 70.32,-12.82l88.19 0 0 67.21 -1.94 0c0,-9.84 -2.65,-19.81 -7.96,-29.91 -5.31,-10.1 -13.86,-18.58 -25.64,-25.45 -11.78,-6.86 -26.74,-10.29 -44.87,-10.29l-6.22 0c-44.81,0 -67.21,13.08 -67.21,39.24 0,8.55 5.37,15.22 16.12,20.01 10.75,4.79 27.26,9.91 49.53,15.35 19.94,4.92 36,9.52 48.17,13.79 12.17,4.27 22.66,10.23 31.47,17.87 8.81,7.64 13.21,17.29 13.21,28.94 0,10.62 -4.86,20.52 -14.57,29.72 -9.71,9.19 -22.98,16.51 -39.82,21.95 -16.83,5.44 -35.35,8.16 -55.55,8.16 -22.01,0 -41.24,-4.66 -57.69,-13.99 -16.45,-9.32 -28.68,-21.88 -36.71,-37.68l1.94 0c8.29,15.02 20.46,27.06 36.52,36.13 16.06,9.06 34.7,13.6 55.94,13.6 27.71,0 47.65,-4.47 59.83,-13.4 12.17,-8.94 18.26,-20.14 18.26,-33.6 0,-5.7 -2.85,-10.55 -8.55,-14.57 -5.7,-4.01 -12.69,-7.32 -20.98,-9.91 -8.29,-2.59 -20.07,-5.83 -35.35,-9.71 -20.2,-4.92 -36.65,-9.58 -49.34,-13.99 -12.69,-4.4 -23.57,-10.55 -32.63,-18.45 -9.06,-7.9 -13.6,-17.93 -13.6,-30.11zm273.49 38.46c3.63,-17.35 10.04,-33.15 19.23,-47.4 9.19,-14.24 19.62,-25.45 31.27,-33.6 11.65,-8.16 22.92,-12.24 33.8,-12.24 11.65,0 21.17,5.05 28.55,15.15 7.38,10.1 11.46,25.38 12.24,45.84l0 69.93c0,13.73 1.55,25.51 4.66,35.35 3.11,9.84 7.06,17.29 11.85,22.34 4.79,5.05 9.52,7.57 14.18,7.57l0 1.94 -100.23 0 0 -1.94c4.66,0 9.39,-2.52 14.18,-7.57 4.79,-5.05 8.74,-12.5 11.85,-22.34 3.11,-9.84 4.66,-21.63 4.66,-35.35l0 -63.71c0,-13.73 -2.52,-24.09 -7.57,-31.08 -5.05,-6.99 -11.72,-10.49 -20.01,-10.49 -7.77,0 -15.93,3.3 -24.47,9.91 -8.55,6.6 -15.99,15.93 -22.34,27.97 -6.34,12.04 -10.29,25.96 -11.85,41.76l0 25.64c0,13.73 1.55,25.51 4.66,35.35 3.11,9.84 7.06,17.29 11.85,22.34 4.79,5.05 9.52,7.57 14.18,7.57l0 1.94 -100.23 0 0 -1.94c4.66,0 9.39,-2.52 14.18,-7.57 4.79,-5.05 8.74,-12.5 11.85,-22.34 3.11,-9.84 4.66,-21.63 4.66,-35.35l0 -137.52c0,-13.73 -1.55,-25.51 -4.66,-35.35 -3.11,-9.84 -7.06,-17.29 -11.85,-22.34 -4.79,-5.05 -9.52,-7.58 -14.18,-7.58l0 -1.94 69.54 0 0 167.05zm274.27 108c-20.98,0 -40.01,-4.01 -57.11,-12.04 -17.09,-8.03 -30.63,-19.62 -40.6,-34.77 -9.97,-15.15 -14.96,-33.09 -14.96,-53.8 0,-20.72 4.99,-38.65 14.96,-53.8 9.97,-15.15 23.5,-26.74 40.6,-34.77 17.09,-8.03 36.13,-12.04 57.11,-12.04 20.72,0 39.69,4.01 56.91,12.04 17.22,8.03 30.82,19.62 40.79,34.77 9.97,15.15 14.96,33.09 14.96,53.8 0,20.72 -4.99,38.65 -14.96,53.8 -9.97,15.15 -23.57,26.74 -40.79,34.77 -17.22,8.03 -36.19,12.04 -56.91,12.04zm0 -1.94c23.05,0 40.73,-9.26 53.03,-27.78 12.3,-18.52 18.45,-42.15 18.45,-70.9 0,-28.75 -6.15,-52.38 -18.45,-70.9 -12.3,-18.52 -29.98,-27.78 -53.03,-27.78 -23.31,0 -41.11,9.19 -53.42,27.58 -12.3,18.39 -18.45,42.09 -18.45,71.09 0,29.01 6.15,52.7 18.45,71.09 12.3,18.39 30.11,27.58 53.42,27.58zm134.03 -93.24l0 -5.44c0,-20.72 4.99,-38.65 14.96,-53.8 9.97,-15.15 23.5,-26.74 40.6,-34.77 17.09,-8.03 36.13,-12.04 57.11,-12.04 25.64,0 46.94,4.47 63.91,13.4 16.96,8.93 27.52,22.98 31.66,42.15l-6.6 3.11c-36.52,15.28 -67.6,32.05 -93.24,50.31 -25.64,18.26 -38.46,35.81 -38.46,52.64 0,12.95 8.93,24.86 26.8,35.74 5.18,1.29 10.49,1.94 15.93,1.94 32.11,0 58.92,-11.27 80.42,-33.8l3.11 0c-21.5,23.83 -49.34,35.74 -83.52,35.74 -20.2,0 -38.65,-3.76 -55.36,-11.27 -16.7,-7.51 -30.17,-18.45 -40.4,-32.83 -10.23,-14.37 -15.86,-31.27 -16.9,-50.7l0 -0.39zm40.79 0c0.52,22.27 4.99,41.44 13.4,57.5 8.42,16.06 20.4,26.81 35.93,32.24 -15.02,-10.36 -22.53,-21.75 -22.53,-34.19 0,-14.76 9.52,-30.04 28.55,-45.84 19.04,-15.8 43.57,-30.82 73.62,-45.06 -0.26,-12.17 -2.65,-23.5 -7.19,-33.99 -4.53,-10.49 -11.14,-18.91 -19.81,-25.25 -8.68,-6.34 -18.71,-9.52 -30.11,-9.52 -23.31,0 -41.11,9.19 -53.42,27.58 -12.3,18.39 -18.45,42.09 -18.45,71.09l0 5.44zm248.63 -12.82c3.63,-17.35 10.04,-33.15 19.23,-47.4 9.19,-14.24 19.62,-25.45 31.27,-33.6 11.65,-8.16 22.92,-12.24 33.8,-12.24 11.65,0 21.17,5.05 28.55,15.15 7.38,10.1 11.46,25.38 12.24,45.84l0 32.24c3.63,-17.35 10.04,-33.15 19.23,-47.4 9.19,-14.24 19.62,-25.45 31.27,-33.6 11.65,-8.16 22.92,-12.24 33.8,-12.24 11.65,0 21.17,5.05 28.55,15.15 7.38,10.1 11.46,25.38 12.24,45.84l0 69.93c0,13.73 1.55,25.51 4.66,35.35 3.11,9.84 7.06,17.29 11.85,22.34 4.79,5.05 9.52,7.57 14.18,7.57l0 1.94 -100.23 0 0 -1.94c4.66,0 9.39,-2.52 14.18,-7.57 4.79,-5.05 8.74,-12.5 11.85,-22.34 3.11,-9.84 4.66,-21.63 4.66,-35.35l0 -63.71c0,-13.73 -2.52,-24.09 -7.58,-31.08 -5.05,-6.99 -11.72,-10.49 -20.01,-10.49 -7.77,0 -15.93,3.3 -24.47,9.91 -8.55,6.6 -15.99,15.93 -22.34,27.97 -6.34,12.04 -10.29,25.96 -11.85,41.76l0 25.64c0,13.73 1.55,25.51 4.66,35.35 3.11,9.84 7.06,17.29 11.85,22.34 4.79,5.05 9.52,7.57 14.18,7.57l0 1.94 -100.23 0 0 -1.94c4.66,0 9.39,-2.52 14.18,-7.57 4.79,-5.05 8.74,-12.5 11.85,-22.34 3.11,-9.84 4.66,-21.63 4.66,-35.35l0 -63.71c0,-13.73 -2.52,-24.09 -7.57,-31.08 -5.05,-6.99 -11.72,-10.49 -20.01,-10.49 -7.77,0 -15.93,3.3 -24.47,9.91 -8.55,6.6 -15.99,15.93 -22.34,27.97 -6.34,12.04 -10.29,25.96 -11.85,41.76l0 25.64c0,13.73 1.55,25.51 4.66,35.35 3.11,9.84 7.06,17.29 11.85,22.34 4.79,5.05 9.52,7.57 14.18,7.57l0 1.94 -100.23 0 0 -1.94c4.66,0 9.39,-2.52 14.18,-7.57 4.79,-5.05 8.74,-12.5 11.85,-22.34 3.11,-9.84 4.66,-21.63 4.66,-35.35l0 -59.83c0,-13.73 -1.55,-25.51 -4.66,-35.35 -3.11,-9.84 -7.06,-17.29 -11.85,-22.34 -4.79,-5.05 -9.52,-7.58 -14.18,-7.58l0 -1.94 69.54 0 0 89.35zm434.71 69.15c-4.14,12.95 -11.91,22.6 -23.31,28.94 -11.4,6.34 -24.86,9.52 -40.4,9.52 -23.05,0 -43.19,-3.63 -60.41,-10.88 -17.22,-7.25 -25.83,-21.37 -25.83,-42.34 0,-16.32 4.47,-28.55 13.4,-36.71 8.94,-8.16 19.81,-13.4 32.63,-15.73 12.82,-2.33 27.65,-3.5 44.48,-3.5l15.54 0c9.32,0 16.25,-0.45 20.78,-1.36 4.53,-0.91 6.8,-2.65 6.8,-5.24 0,-2.07 -1.81,-3.56 -5.44,-4.47 -3.63,-0.91 -10.23,-2.01 -19.81,-3.3 -17.35,-2.33 -31.14,-5.44 -41.37,-9.32 -10.23,-3.88 -15.35,-10.88 -15.35,-20.98 0,-9.06 3.04,-17.22 9.13,-24.47 6.09,-7.25 14.11,-12.89 24.09,-16.9 9.97,-4.01 20.52,-6.02 31.66,-6.02 18.91,0 35.35,5.89 49.34,17.68 13.99,11.78 21.75,29.46 23.31,53.03l0 4.66 0 1.55 -0.39 62.16c0.52,12.17 2.4,22.6 5.63,31.27 3.24,8.68 7.12,15.22 11.65,19.62 4.53,4.4 9,6.6 13.4,6.6l0 1.94 -69.54 0 0 -35.74zm-113.44 -14.76c0,18.39 4.08,31.53 12.24,39.43 8.16,7.9 20.65,11.85 37.49,11.85 16.58,0 30.63,-3.63 42.15,-10.88 11.52,-7.25 18.71,-18.39 21.56,-33.41l0.39 -79.64c-0.26,-18.65 -5.76,-32.57 -16.51,-41.76 -10.75,-9.19 -23.37,-13.79 -37.88,-13.79 -11.4,0 -21.3,2.59 -29.72,7.77 -8.42,5.18 -12.63,11.78 -12.63,19.81 0,9.32 4.86,15.8 14.57,19.42 9.71,3.63 23.11,6.6 40.21,8.94 10.1,1.29 17.16,2.52 21.17,3.69 4.01,1.17 6.02,3.17 6.02,6.02 0,4.14 -2.27,6.73 -6.8,7.77 -4.53,1.04 -12.11,1.68 -22.73,1.94 -13.99,0.26 -25.58,1.36 -34.77,3.3 -9.19,1.94 -17.29,6.73 -24.28,14.37 -6.99,7.64 -10.49,19.36 -10.49,35.16zm264.17 -54.39c3.63,-17.35 10.04,-33.15 19.23,-47.4 9.19,-14.24 19.62,-25.45 31.27,-33.6 11.65,-8.16 22.92,-12.24 33.8,-12.24 11.65,0 21.17,5.05 28.55,15.15 7.38,10.1 11.46,25.38 12.24,45.84l0 69.93c0,13.73 1.55,25.51 4.66,35.35 3.11,9.84 7.06,17.29 11.85,22.34 4.79,5.05 9.52,7.57 14.18,7.57l0 1.94 -100.23 0 0 -1.94c4.66,0 9.39,-2.52 14.18,-7.57 4.79,-5.05 8.74,-12.5 11.85,-22.34 3.11,-9.84 4.66,-21.63 4.66,-35.35l0 -63.71c0,-13.73 -2.52,-24.09 -7.57,-31.08 -5.05,-6.99 -11.72,-10.49 -20.01,-10.49 -7.77,0 -15.93,3.3 -24.47,9.91 -8.55,6.6 -15.99,15.93 -22.34,27.97 -6.34,12.04 -10.29,25.96 -11.85,41.76l0 25.64c0,13.73 1.55,25.51 4.66,35.35 3.11,9.84 7.06,17.29 11.85,22.34 4.79,5.05 9.52,7.57 14.18,7.57l0 1.94 -100.23 0 0 -1.94c4.66,0 9.39,-2.52 14.18,-7.57 4.79,-5.05 8.74,-12.5 11.85,-22.34 3.11,-9.84 4.66,-21.63 4.66,-35.35l0 -59.83c0,-13.73 -1.55,-25.51 -4.66,-35.35 -3.11,-9.84 -7.06,-17.29 -11.85,-22.34 -4.79,-5.05 -9.52,-7.58 -14.18,-7.58l0 -1.94 69.54 0 0 89.35z"/>
   <g>
    <path class="fil0" d="M121.44 374.38c-1.59,0 -3.2,0.86 -4.84,2.59 -1.64,1.72 -2.98,4.27 -4.04,7.62 -1.06,3.36 -1.59,7.38 -1.59,12.07l0 46.94c0,4.68 0.53,8.71 1.59,12.07 1.06,3.36 2.41,5.9 4.04,7.62 1.64,1.72 3.25,2.59 4.84,2.59l3.98 0c6.36,0 11.62,-1.64 15.78,-4.91 4.15,-3.27 7.16,-7.31 9.02,-12.13 1.86,-4.82 2.78,-9.61 2.78,-14.39l0.66 0 0 32.09 -66.43 0 0 -0.66c1.59,0 3.2,-0.86 4.84,-2.59 1.64,-1.72 2.98,-4.27 4.04,-7.62 1.06,-3.36 1.59,-7.38 1.59,-12.07l0 -46.94c0,-4.68 -0.53,-8.71 -1.59,-12.07 -1.06,-3.36 -2.41,-5.9 -4.04,-7.62 -1.63,-1.72 -3.25,-2.59 -4.84,-2.59l0 -0.66 34.21 0 0 0.66zm89.37 61.66c-1.24,5.92 -3.43,11.32 -6.56,16.18 -3.14,4.86 -6.7,8.69 -10.67,11.47 -3.98,2.78 -7.82,4.18 -11.54,4.18 -3.98,0 -7.23,-1.72 -9.75,-5.17 -2.52,-3.45 -3.91,-8.66 -4.18,-15.65l0 -23.87c0,-4.68 -0.53,-8.71 -1.59,-12.07 -1.06,-3.36 -2.41,-5.9 -4.04,-7.62 -1.63,-1.72 -3.25,-2.59 -4.84,-2.59l0 -0.66 23.74 0 0 44.69c0,4.69 0.86,8.22 2.59,10.61 1.72,2.39 4,3.58 6.83,3.58 2.65,0 5.44,-1.13 8.35,-3.38 2.92,-2.25 5.46,-5.44 7.62,-9.55 2.17,-4.11 3.51,-8.86 4.04,-14.25l0 -8.75c0,-4.68 -0.53,-8.71 -1.59,-12.07 -1.06,-3.36 -2.41,-5.9 -4.04,-7.62 -1.64,-1.72 -3.25,-2.59 -4.84,-2.59l0 -0.66 23.74 0 0 43.36c0,4.68 0.53,8.71 1.59,12.07 1.06,3.36 2.41,5.9 4.04,7.62 1.63,1.72 3.25,2.59 4.84,2.59l0 0.66 -23.74 0 0 -30.5zm63.25 -35.14c-0.97,0 -1.75,0.35 -2.32,1.06 -0.58,0.71 -0.86,1.77 -0.86,3.18 0,4.24 2.34,10.25 7.03,18.03l4.38 7.03 5.3 -7.03c2.65,-3.89 4.71,-7.54 6.17,-10.94 1.46,-3.4 2.19,-6.12 2.19,-8.15 0,-2.12 -0.75,-3.18 -2.25,-3.18l0 -0.66 21.75 0 0 0.66c-1.33,0 -3.38,0.82 -6.17,2.45 -2.78,1.64 -5.77,3.85 -8.95,6.63 -3.18,2.78 -6.1,5.81 -8.75,9.08l-2.52 3.45 -0.53 0.66 -5.83 7.69 8.09 12.73c2.39,3.89 5.22,7.56 8.49,11.01 3.27,3.45 6.41,6.19 9.41,8.22 3.01,2.03 5.26,3.05 6.76,3.05l0 0.66 -35.54 0 0 -0.66c1.95,0 2.92,-1.41 2.92,-4.24 0,-2.03 -0.55,-4.62 -1.66,-7.76 -1.11,-3.14 -2.81,-6.56 -5.11,-10.28l-4.51 -7.16 -5.3 7.16c-2.56,3.8 -4.55,7.45 -5.97,10.94 -1.41,3.49 -2.12,6.25 -2.12,8.29 0,2.03 0.71,3.05 2.12,3.05l0 0.66 -21.75 0 0 -0.66c1.41,0 3.62,-0.97 6.63,-2.92 3.01,-1.95 6.25,-4.51 9.75,-7.69 3.49,-3.18 6.65,-6.59 9.48,-10.21l6.76 -9.28 -11.54 -18.56c-3.8,-5.04 -7.71,-9.02 -11.73,-11.93 -4.02,-2.92 -7.14,-4.38 -9.35,-4.38l0 -0.66 35.54 0 0 0.66zm98.52 35.14c-1.24,5.92 -3.43,11.32 -6.56,16.18 -3.14,4.86 -6.7,8.69 -10.67,11.47 -3.98,2.78 -7.82,4.18 -11.54,4.18 -3.98,0 -7.23,-1.72 -9.75,-5.17 -2.52,-3.45 -3.91,-8.66 -4.18,-15.65l0 -23.87c0,-4.68 -0.53,-8.71 -1.59,-12.07 -1.06,-3.36 -2.41,-5.9 -4.04,-7.62 -1.63,-1.72 -3.25,-2.59 -4.84,-2.59l0 -0.66 23.74 0 0 44.69c0,4.69 0.86,8.22 2.59,10.61 1.72,2.39 4,3.58 6.83,3.58 2.65,0 5.44,-1.13 8.35,-3.38 2.92,-2.25 5.46,-5.44 7.62,-9.55 2.17,-4.11 3.51,-8.86 4.04,-14.25l0 -8.75c0,-4.68 -0.53,-8.71 -1.59,-12.07 -1.06,-3.36 -2.41,-5.9 -4.04,-7.62 -1.64,-1.72 -3.25,-2.59 -4.84,-2.59l0 -0.66 23.74 0 0 43.36c0,4.68 0.53,8.71 1.59,12.07 1.06,3.36 2.41,5.9 4.04,7.62 1.63,1.72 3.25,2.59 4.84,2.59l0 0.66 -23.74 0 0 -30.5zm51.45 -5.3c1.15,-5.92 3.29,-11.32 6.43,-16.18 3.14,-4.86 6.72,-8.69 10.74,-11.47 4.02,-2.79 7.89,-4.18 11.6,-4.18 3.01,0 5.61,0.97 7.82,2.92l-6.1 20.02 -1.06 0c0,-4.68 -0.86,-8.22 -2.59,-10.61 -1.72,-2.39 -4,-3.58 -6.83,-3.58 -2.65,0 -5.44,1.13 -8.35,3.38 -2.92,2.25 -5.46,5.44 -7.62,9.55 -2.17,4.11 -3.51,8.86 -4.04,14.25l0 8.75c0,4.68 0.53,8.71 1.59,12.07 1.06,3.36 2.41,5.9 4.04,7.62 1.64,1.72 3.25,2.59 4.84,2.59l0 0.66 -34.21 0 0 -0.66c1.59,0 3.2,-0.86 4.84,-2.59 1.64,-1.72 2.98,-4.27 4.04,-7.62 1.06,-3.36 1.59,-7.38 1.59,-12.07l0 -20.42c0,-4.68 -0.53,-8.71 -1.59,-12.07 -1.06,-3.36 -2.41,-5.9 -4.04,-7.62 -1.63,-1.72 -3.25,-2.59 -4.84,-2.59l0 -0.66 23.74 0 0 30.5zm74.79 -29.84c-2.47,0 -3.71,1.99 -3.71,5.97 0,3.98 1.28,9.42 3.85,16.31l12.07 26.65 10.34 -26.65c2.03,-5.75 3.05,-10.52 3.05,-14.32 0,-2.56 -0.42,-4.53 -1.26,-5.9 -0.84,-1.37 -1.92,-2.06 -3.25,-2.06l0 -0.66 21.61 0 0 0.66c-1.5,0 -3.34,0.77 -5.5,2.32 -2.17,1.55 -4.4,3.8 -6.7,6.76 -2.3,2.96 -4.33,6.43 -6.1,10.41l-15.51 39.65 -2.92 7.96c-1.77,6.63 -4.02,11.51 -6.76,14.65 -2.74,3.14 -6.81,4.57 -12.2,4.31l-13 0 0 -18.3 0.66 0c0,5.13 1.08,9.35 3.25,12.66 2.17,3.32 5.68,4.97 10.54,4.97 4.77,0 8.38,-1.59 10.81,-4.77 2.43,-3.18 4.53,-7.96 6.3,-14.32l-21.22 -48.66c-1.86,-3.71 -3.96,-6.9 -6.3,-9.55 -2.34,-2.65 -4.62,-4.66 -6.83,-6.03 -2.21,-1.37 -4.02,-2.06 -5.44,-2.06l0 -0.66 34.21 0 0 0.66zm49.33 15.51c-0.44,0 -0.66,-0.22 -0.66,-0.66 0,-0.44 0.22,-0.66 0.66,-0.66l22.54 0c0.44,0 0.66,0.22 0.66,0.66 0,0.44 -0.22,0.66 -0.66,0.66l-22.54 0zm29.17 49.46c1.59,0 3.2,-0.86 4.84,-2.59 1.64,-1.72 2.98,-4.27 4.04,-7.62 1.06,-3.36 1.59,-7.38 1.59,-12.07l0 -46.94c0,-4.68 -0.53,-8.71 -1.59,-12.07 -1.06,-3.36 -2.41,-5.9 -4.04,-7.62 -1.63,-1.72 -3.25,-2.59 -4.84,-2.59l0 -0.66 38.98 0c10.17,0.09 19.03,1.81 26.59,5.17 7.56,3.36 11.34,8.62 11.34,15.78 0,3.45 -1.17,6.37 -3.51,8.75 -2.34,2.39 -5.24,4.33 -8.69,5.83 -3.45,1.5 -8.09,3.18 -13.92,5.04 -6.01,2.03 -10.76,3.78 -14.25,5.24 -3.49,1.46 -6.48,3.45 -8.95,5.97 -2.47,2.52 -3.76,5.59 -3.84,9.22l0 8.88c0,4.68 0.53,8.71 1.59,12.07 1.06,3.36 2.41,5.9 4.04,7.62 1.64,1.72 3.25,2.59 4.84,2.59l0 0.66 -34.21 0 0 -0.66zm23.74 -35.27c1.06,-3.62 3.12,-6.41 6.17,-8.35 3.05,-1.94 7.31,-3.98 12.8,-6.1 4.68,-1.77 8.4,-3.4 11.14,-4.91 2.74,-1.5 5.06,-3.58 6.96,-6.23 1.9,-2.65 2.85,-6.1 2.85,-10.34 0,-7.43 -1.99,-12.66 -5.97,-15.71 -3.98,-3.05 -10.21,-4.57 -18.7,-4.57l-4.77 0c-1.59,0 -3.2,0.86 -4.84,2.59 -1.64,1.72 -2.98,4.27 -4.04,7.62 -1.06,3.36 -1.59,7.38 -1.59,12.07l0 33.95zm80.89 0.13c1.15,-5.92 3.29,-11.32 6.43,-16.18 3.14,-4.86 6.72,-8.69 10.74,-11.47 4.02,-2.79 7.89,-4.18 11.6,-4.18 3.01,0 5.61,0.97 7.82,2.92l-6.1 20.02 -1.06 0c0,-4.68 -0.86,-8.22 -2.59,-10.61 -1.72,-2.39 -4,-3.58 -6.83,-3.58 -2.65,0 -5.44,1.13 -8.35,3.38 -2.92,2.25 -5.46,5.44 -7.62,9.55 -2.17,4.11 -3.51,8.86 -4.04,14.25l0 8.75c0,4.68 0.53,8.71 1.59,12.07 1.06,3.36 2.41,5.9 4.04,7.62 1.64,1.72 3.25,2.59 4.84,2.59l0 0.66 -34.21 0 0 -0.66c1.59,0 3.2,-0.86 4.84,-2.59 1.64,-1.72 2.98,-4.27 4.04,-7.62 1.06,-3.36 1.59,-7.38 1.59,-12.07l0 -20.42c0,-4.68 -0.53,-8.71 -1.59,-12.07 -1.06,-3.36 -2.41,-5.9 -4.04,-7.62 -1.63,-1.72 -3.25,-2.59 -4.84,-2.59l0 -0.66 23.74 0 0 30.5zm39.25 4.38l0 -1.86c0,-7.07 1.7,-13.19 5.11,-18.37 3.4,-5.17 8.02,-9.13 13.86,-11.87 5.83,-2.74 12.33,-4.11 19.49,-4.11 8.75,0 16.02,1.52 21.81,4.57 5.79,3.05 9.39,7.85 10.81,14.39l-2.25 1.06c-12.46,5.22 -23.07,10.94 -31.82,17.17 -8.75,6.23 -13.13,12.22 -13.13,17.97 0,4.42 3.05,8.49 9.15,12.2 1.77,0.44 3.58,0.66 5.44,0.66 10.96,0 20.11,-3.85 27.45,-11.54l1.06 0c-7.34,8.13 -16.84,12.2 -28.51,12.2 -6.9,0 -13.19,-1.28 -18.9,-3.84 -5.7,-2.56 -10.3,-6.3 -13.79,-11.2 -3.49,-4.91 -5.41,-10.67 -5.77,-17.3l0 -0.13zm13.92 0c0.18,7.6 1.7,14.14 4.57,19.63 2.87,5.48 6.96,9.15 12.27,11.01 -5.13,-3.54 -7.69,-7.43 -7.69,-11.67 0,-5.04 3.25,-10.25 9.75,-15.65 6.5,-5.39 14.87,-10.52 25.13,-15.38 -0.09,-4.15 -0.91,-8.02 -2.45,-11.6 -1.55,-3.58 -3.8,-6.45 -6.76,-8.62 -2.96,-2.17 -6.39,-3.25 -10.28,-3.25 -7.96,0 -14.03,3.14 -18.23,9.41 -4.2,6.28 -6.3,14.37 -6.3,24.27l0 1.86zm84.86 -4.38c1.24,-5.92 3.43,-11.32 6.56,-16.18 3.14,-4.86 6.7,-8.69 10.67,-11.47 3.98,-2.79 7.82,-4.18 11.54,-4.18 3.98,0 7.23,1.72 9.75,5.17 2.52,3.45 3.91,8.66 4.18,15.65l0 11.01c1.24,-5.92 3.43,-11.32 6.56,-16.18 3.14,-4.86 6.7,-8.69 10.68,-11.47 3.98,-2.79 7.82,-4.18 11.54,-4.18 3.98,0 7.23,1.72 9.75,5.17 2.52,3.45 3.91,8.66 4.18,15.65l0 23.87c0,4.68 0.53,8.71 1.59,12.07 1.06,3.36 2.41,5.9 4.04,7.62 1.64,1.72 3.25,2.59 4.84,2.59l0 0.66 -34.21 0 0 -0.66c1.59,0 3.2,-0.86 4.84,-2.59 1.63,-1.72 2.98,-4.27 4.04,-7.62 1.06,-3.36 1.59,-7.38 1.59,-12.07l0 -21.75c0,-4.68 -0.86,-8.22 -2.59,-10.61 -1.72,-2.39 -4,-3.58 -6.83,-3.58 -2.65,0 -5.44,1.13 -8.35,3.38 -2.92,2.25 -5.46,5.44 -7.62,9.55 -2.17,4.11 -3.51,8.86 -4.04,14.25l0 8.75c0,4.68 0.53,8.71 1.59,12.07 1.06,3.36 2.41,5.9 4.04,7.62 1.63,1.72 3.25,2.59 4.84,2.59l0 0.66 -34.21 0 0 -0.66c1.59,0 3.2,-0.86 4.84,-2.59 1.64,-1.72 2.98,-4.27 4.04,-7.62 1.06,-3.36 1.59,-7.38 1.59,-12.07l0 -21.75c0,-4.68 -0.86,-8.22 -2.59,-10.61 -1.72,-2.39 -4,-3.58 -6.83,-3.58 -2.65,0 -5.44,1.13 -8.35,3.38 -2.92,2.25 -5.46,5.44 -7.62,9.55 -2.17,4.11 -3.51,8.86 -4.04,14.25l0 8.75c0,4.68 0.53,8.71 1.59,12.07 1.06,3.36 2.41,5.9 4.04,7.62 1.64,1.72 3.25,2.59 4.84,2.59l0 0.66 -34.21 0 0 -0.66c1.59,0 3.2,-0.86 4.84,-2.59 1.64,-1.72 2.98,-4.27 4.04,-7.62 1.06,-3.36 1.59,-7.38 1.59,-12.07l0 -20.42c0,-4.68 -0.53,-8.71 -1.59,-12.07 -1.06,-3.36 -2.41,-5.9 -4.04,-7.62 -1.63,-1.72 -3.25,-2.59 -4.84,-2.59l0 -0.66 23.74 0 0 30.5zm122.92 -30.5c-0.26,-1.86 -1.02,-3.32 -2.25,-4.38 -1.24,-1.06 -3.05,-2.3 -5.44,-3.71 -2.03,-1.15 -3.58,-2.14 -4.64,-2.98 -1.06,-0.84 -1.72,-1.88 -1.99,-3.12 -0.26,-0.8 -0.4,-1.68 -0.4,-2.65 0,-2.12 0.77,-3.96 2.32,-5.5 1.55,-1.55 3.43,-2.32 5.64,-2.32 2.12,0 3.93,0.77 5.44,2.32 1.5,1.55 2.25,3.38 2.25,5.5 0,2.21 -0.75,4.07 -2.25,5.57 -1.5,1.5 -3.32,2.25 -5.44,2.25 -0.71,0 -1.24,-0.04 -1.59,-0.13 2.92,1.59 5.08,2.98 6.5,4.18 1.41,1.19 2.25,2.85 2.52,4.97l0 43.36c0,4.68 0.53,8.71 1.59,12.07 1.06,3.36 2.41,5.9 4.04,7.62 1.64,1.72 3.25,2.59 4.84,2.59l0 0.66 -34.21 0 0 -0.66c1.59,0 3.2,-0.86 4.84,-2.59 1.64,-1.72 2.98,-4.27 4.04,-7.62 1.06,-3.36 1.59,-7.38 1.59,-12.07l0 -20.42c0,-4.68 -0.53,-8.71 -1.59,-12.07 -1.06,-3.36 -2.41,-5.9 -4.04,-7.62 -1.63,-1.72 -3.25,-2.59 -4.84,-2.59l0 -0.66 23.07 0zm68.29 35.8c-1.24,5.92 -3.43,11.32 -6.56,16.18 -3.14,4.86 -6.7,8.69 -10.67,11.47 -3.98,2.78 -7.82,4.18 -11.54,4.18 -3.98,0 -7.23,-1.72 -9.75,-5.17 -2.52,-3.45 -3.91,-8.66 -4.18,-15.65l0 -23.87c0,-4.68 -0.53,-8.71 -1.59,-12.07 -1.06,-3.36 -2.41,-5.9 -4.04,-7.62 -1.63,-1.72 -3.25,-2.59 -4.84,-2.59l0 -0.66 23.74 0 0 44.69c0,4.69 0.86,8.22 2.59,10.61 1.72,2.39 4,3.58 6.83,3.58 2.65,0 5.44,-1.13 8.35,-3.38 2.92,-2.25 5.46,-5.44 7.62,-9.55 2.17,-4.11 3.51,-8.86 4.04,-14.25l0 -8.75c0,-4.68 -0.53,-8.71 -1.59,-12.07 -1.06,-3.36 -2.41,-5.9 -4.04,-7.62 -1.64,-1.72 -3.25,-2.59 -4.84,-2.59l0 -0.66 23.74 0 0 43.36c0,4.68 0.53,8.71 1.59,12.07 1.06,3.36 2.41,5.9 4.04,7.62 1.63,1.72 3.25,2.59 4.84,2.59l0 0.66 -23.74 0 0 -30.5zm51.45 -5.3c1.24,-5.92 3.43,-11.32 6.56,-16.18 3.14,-4.86 6.7,-8.69 10.67,-11.47 3.98,-2.79 7.82,-4.18 11.54,-4.18 3.98,0 7.23,1.72 9.75,5.17 2.52,3.45 3.91,8.66 4.18,15.65l0 11.01c1.24,-5.92 3.43,-11.32 6.56,-16.18 3.14,-4.86 6.7,-8.69 10.68,-11.47 3.98,-2.79 7.82,-4.18 11.54,-4.18 3.98,0 7.23,1.72 9.75,5.17 2.52,3.45 3.91,8.66 4.18,15.65l0 23.87c0,4.68 0.53,8.71 1.59,12.07 1.06,3.36 2.41,5.9 4.04,7.62 1.64,1.72 3.25,2.59 4.84,2.59l0 0.66 -34.21 0 0 -0.66c1.59,0 3.2,-0.86 4.84,-2.59 1.63,-1.72 2.98,-4.27 4.04,-7.62 1.06,-3.36 1.59,-7.38 1.59,-12.07l0 -21.75c0,-4.68 -0.86,-8.22 -2.59,-10.61 -1.72,-2.39 -4,-3.58 -6.83,-3.58 -2.65,0 -5.44,1.13 -8.35,3.38 -2.92,2.25 -5.46,5.44 -7.62,9.55 -2.17,4.11 -3.51,8.86 -4.04,14.25l0 8.75c0,4.68 0.53,8.71 1.59,12.07 1.06,3.36 2.41,5.9 4.04,7.62 1.63,1.72 3.25,2.59 4.84,2.59l0 0.66 -34.21 0 0 -0.66c1.59,0 3.2,-0.86 4.84,-2.59 1.64,-1.72 2.98,-4.27 4.04,-7.62 1.06,-3.36 1.59,-7.38 1.59,-12.07l0 -21.75c0,-4.68 -0.86,-8.22 -2.59,-10.61 -1.72,-2.39 -4,-3.58 -6.83,-3.58 -2.65,0 -5.44,1.13 -8.35,3.38 -2.92,2.25 -5.46,5.44 -7.62,9.55 -2.17,4.11 -3.51,8.86 -4.04,14.25l0 8.75c0,4.68 0.53,8.71 1.59,12.07 1.06,3.36 2.41,5.9 4.04,7.62 1.64,1.72 3.25,2.59 4.84,2.59l0 0.66 -34.21 0 0 -0.66c1.59,0 3.2,-0.86 4.84,-2.59 1.64,-1.72 2.98,-4.27 4.04,-7.62 1.06,-3.36 1.59,-7.38 1.59,-12.07l0 -20.42c0,-4.68 -0.53,-8.71 -1.59,-12.07 -1.06,-3.36 -2.41,-5.9 -4.04,-7.62 -1.63,-1.72 -3.25,-2.59 -4.84,-2.59l0 -0.66 23.74 0 0 30.5zm102.5 -14.32c-0.44,0 -0.66,-0.22 -0.66,-0.66 0,-0.44 0.22,-0.66 0.66,-0.66l22.54 0c0.44,0 0.66,0.22 0.66,0.66 0,0.44 -0.22,0.66 -0.66,0.66l-22.54 0zm63.38 -42.03c-1.59,0 -3.2,0.86 -4.84,2.59 -1.64,1.72 -2.98,4.27 -4.04,7.62 -1.06,3.36 -1.59,7.38 -1.59,12.07l0 46.94c0,4.68 0.53,8.71 1.59,12.07 1.06,3.36 2.41,5.9 4.04,7.62 1.64,1.72 3.25,2.59 4.84,2.59l3.98 0c6.36,0 11.62,-1.64 15.78,-4.91 4.15,-3.27 7.16,-7.31 9.02,-12.13 1.86,-4.82 2.78,-9.61 2.78,-14.39l0.66 0 0 32.09 -66.43 0 0 -0.66c1.59,0 3.2,-0.86 4.84,-2.59 1.64,-1.72 2.98,-4.27 4.04,-7.62 1.06,-3.36 1.59,-7.38 1.59,-12.07l0 -46.94c0,-4.68 -0.53,-8.71 -1.59,-12.07 -1.06,-3.36 -2.41,-5.9 -4.04,-7.62 -1.63,-1.72 -3.25,-2.59 -4.84,-2.59l0 -0.66 34.21 0 0 0.66zm88.71 79.96c-1.41,4.42 -4.07,7.71 -7.96,9.88 -3.89,2.17 -8.49,3.25 -13.79,3.25 -7.87,0 -14.74,-1.24 -20.62,-3.71 -5.88,-2.48 -8.82,-7.29 -8.82,-14.45 0,-5.57 1.52,-9.75 4.57,-12.53 3.05,-2.78 6.76,-4.57 11.14,-5.37 4.38,-0.8 9.44,-1.19 15.18,-1.19l5.3 0c3.18,0 5.55,-0.15 7.09,-0.46 1.55,-0.31 2.32,-0.91 2.32,-1.79 0,-0.71 -0.62,-1.22 -1.86,-1.52 -1.24,-0.31 -3.49,-0.69 -6.76,-1.13 -5.92,-0.8 -10.63,-1.86 -14.12,-3.18 -3.49,-1.33 -5.24,-3.71 -5.24,-7.16 0,-3.09 1.04,-5.88 3.12,-8.35 2.08,-2.47 4.82,-4.4 8.22,-5.77 3.4,-1.37 7.01,-2.06 10.81,-2.06 6.45,0 12.07,2.01 16.84,6.03 4.77,4.02 7.43,10.06 7.96,18.1l0 1.59 0 0.53 -0.13 21.22c0.18,4.16 0.82,7.71 1.92,10.67 1.11,2.96 2.43,5.19 3.98,6.7 1.55,1.5 3.07,2.25 4.57,2.25l0 0.66 -23.74 0 0 -12.2zm-38.72 -5.04c0,6.28 1.39,10.76 4.18,13.46 2.78,2.7 7.05,4.04 12.8,4.04 5.66,0 10.45,-1.24 14.39,-3.71 3.93,-2.47 6.39,-6.28 7.36,-11.4l0.13 -27.18c-0.09,-6.37 -1.97,-11.12 -5.64,-14.25 -3.67,-3.14 -7.98,-4.71 -12.93,-4.71 -3.89,0 -7.27,0.88 -10.14,2.65 -2.87,1.77 -4.31,4.02 -4.31,6.76 0,3.18 1.66,5.39 4.97,6.63 3.32,1.24 7.89,2.25 13.72,3.05 3.45,0.44 5.86,0.86 7.23,1.26 1.37,0.4 2.06,1.08 2.06,2.06 0,1.41 -0.77,2.3 -2.32,2.65 -1.55,0.35 -4.13,0.57 -7.76,0.66 -4.77,0.09 -8.73,0.46 -11.87,1.13 -3.14,0.66 -5.9,2.3 -8.29,4.91 -2.39,2.61 -3.58,6.61 -3.58,12zm66.57 -31.69c0,-5.83 3.32,-10.17 9.95,-12.99 6.63,-2.83 14.63,-4.29 24,-4.38l30.1 0 0 22.94 -0.66 0c0,-3.36 -0.91,-6.76 -2.72,-10.21 -1.81,-3.45 -4.73,-6.34 -8.75,-8.69 -4.02,-2.34 -9.13,-3.51 -15.32,-3.51l-2.12 0c-15.29,0 -22.94,4.46 -22.94,13.39 0,2.92 1.83,5.19 5.5,6.83 3.67,1.64 9.3,3.38 16.91,5.24 6.81,1.68 12.29,3.25 16.44,4.71 4.16,1.46 7.74,3.49 10.74,6.1 3.01,2.61 4.51,5.9 4.51,9.88 0,3.62 -1.66,7.01 -4.97,10.14 -3.32,3.14 -7.85,5.64 -13.59,7.49 -5.75,1.86 -12.07,2.78 -18.96,2.78 -7.51,0 -14.08,-1.59 -19.69,-4.77 -5.61,-3.18 -9.79,-7.47 -12.53,-12.86l0.66 0c2.83,5.13 6.98,9.24 12.46,12.33 5.48,3.09 11.85,4.64 19.09,4.64 9.46,0 16.27,-1.53 20.42,-4.57 4.15,-3.05 6.23,-6.87 6.23,-11.47 0,-1.95 -0.97,-3.6 -2.92,-4.97 -1.95,-1.37 -4.33,-2.5 -7.16,-3.38 -2.83,-0.88 -6.85,-1.99 -12.07,-3.32 -6.9,-1.68 -12.51,-3.27 -16.84,-4.77 -4.33,-1.5 -8.04,-3.6 -11.14,-6.3 -3.09,-2.7 -4.64,-6.12 -4.64,-10.28zm100.51 -43.89l0 0.66c-1.59,0 -3.18,0.82 -4.77,2.45 -1.59,1.64 -2.94,4.09 -4.04,7.36 -1.11,3.27 -1.66,7.21 -1.66,11.8l14.85 0 0 0.66 -14.85 0 0 47.34c0,7.07 1.17,12.44 3.51,16.11 2.34,3.67 5.41,5.5 9.22,5.5 2.56,0 5.22,-0.8 7.96,-2.39l0.4 0.53c-4.33,2.65 -8.88,3.98 -13.66,3.98 -5.83,0 -10.72,-2.03 -14.65,-6.1 -3.93,-4.07 -5.94,-9.86 -6.03,-17.37l0 -47.6 -7.16 0 0 -0.66 7.16 0 0 -22.28 23.74 0zm37.66 26.52c-0.26,-1.86 -1.02,-3.32 -2.25,-4.38 -1.24,-1.06 -3.05,-2.3 -5.44,-3.71 -2.03,-1.15 -3.58,-2.14 -4.64,-2.98 -1.06,-0.84 -1.72,-1.88 -1.99,-3.12 -0.26,-0.8 -0.4,-1.68 -0.4,-2.65 0,-2.12 0.77,-3.96 2.32,-5.5 1.55,-1.55 3.43,-2.32 5.64,-2.32 2.12,0 3.93,0.77 5.44,2.32 1.5,1.55 2.25,3.38 2.25,5.5 0,2.21 -0.75,4.07 -2.25,5.57 -1.5,1.5 -3.32,2.25 -5.44,2.25 -0.71,0 -1.24,-0.04 -1.59,-0.13 2.92,1.59 5.08,2.98 6.5,4.18 1.41,1.19 2.25,2.85 2.52,4.97l0 43.36c0,4.68 0.53,8.71 1.59,12.07 1.06,3.36 2.41,5.9 4.04,7.62 1.64,1.72 3.25,2.59 4.84,2.59l0 0.66 -34.21 0 0 -0.66c1.59,0 3.2,-0.86 4.84,-2.59 1.64,-1.72 2.98,-4.27 4.04,-7.62 1.06,-3.36 1.59,-7.38 1.59,-12.07l0 -20.42c0,-4.68 -0.53,-8.71 -1.59,-12.07 -1.06,-3.36 -2.41,-5.9 -4.04,-7.62 -1.63,-1.72 -3.25,-2.59 -4.84,-2.59l0 -0.66 23.07 0zm38.85 30.5c1.24,-5.92 3.43,-11.32 6.56,-16.18 3.14,-4.86 6.7,-8.69 10.67,-11.47 3.98,-2.79 7.82,-4.18 11.54,-4.18 3.98,0 7.23,1.72 9.75,5.17 2.52,3.45 3.91,8.66 4.18,15.65l0 23.87c0,4.68 0.53,8.71 1.59,12.07 1.06,3.36 2.41,5.9 4.04,7.62 1.63,1.72 3.25,2.59 4.84,2.59l0 0.66 -34.21 0 0 -0.66c1.59,0 3.2,-0.86 4.84,-2.59 1.64,-1.72 2.98,-4.27 4.04,-7.62 1.06,-3.36 1.59,-7.38 1.59,-12.07l0 -21.75c0,-4.68 -0.86,-8.22 -2.59,-10.61 -1.72,-2.39 -4,-3.58 -6.83,-3.58 -2.65,0 -5.44,1.13 -8.35,3.38 -2.92,2.25 -5.46,5.44 -7.62,9.55 -2.17,4.11 -3.51,8.86 -4.04,14.25l0 8.75c0,4.68 0.53,8.71 1.59,12.07 1.06,3.36 2.41,5.9 4.04,7.62 1.64,1.72 3.25,2.59 4.84,2.59l0 0.66 -34.21 0 0 -0.66c1.59,0 3.2,-0.86 4.84,-2.59 1.64,-1.72 2.98,-4.27 4.04,-7.62 1.06,-3.36 1.59,-7.38 1.59,-12.07l0 -20.42c0,-4.68 -0.53,-8.71 -1.59,-12.07 -1.06,-3.36 -2.41,-5.9 -4.04,-7.62 -1.63,-1.72 -3.25,-2.59 -4.84,-2.59l0 -0.66 23.74 0 0 30.5z"/>
    <path class="fil0" d="M1609.62 458.72c-6.1,-0.09 -11.62,-1.33 -16.58,-3.71 -4.95,-2.39 -8.88,-5.83 -11.8,-10.34 -2.92,-4.51 -4.38,-9.77 -4.38,-15.78 0,-6.1 1.46,-11.38 4.38,-15.85 2.92,-4.46 6.9,-7.89 11.93,-10.28 5.04,-2.39 10.61,-3.58 16.71,-3.58 7.16,0 13.53,1.59 19.09,4.77 -2.92,-3.36 -4.38,-6.72 -4.38,-10.08 0,-3.36 1.46,-6.1 4.38,-8.22l4.77 5.04c-4.07,2.92 -6.1,5.7 -6.1,8.35 0,2.21 1.33,4.46 3.98,6.76l1.46 1.06c3.09,2.56 5.5,5.72 7.23,9.48 1.72,3.76 2.59,7.93 2.59,12.53 0,7.87 -2.34,14.34 -7.03,19.43 -4.69,5.08 -10.83,8.33 -18.43,9.75l1.99 0c5.39,0 9.77,0.75 13.13,2.25 3.36,1.5 5.79,3.34 7.29,5.5 1.5,2.17 2.25,4.31 2.25,6.43 0,4.6 -1.64,8.15 -4.91,10.67 -3.27,2.52 -7.65,3.78 -13.13,3.78 -3.54,0 -6.65,-0.53 -9.35,-1.59 -2.7,-1.06 -5.94,-2.65 -9.75,-4.77 -3.27,-1.95 -6.12,-3.4 -8.55,-4.38 -2.43,-0.97 -5.1,-1.46 -8.02,-1.46 -3.27,0 -5.77,0.68 -7.49,2.06 -1.72,1.37 -2.59,3.29 -2.59,5.77 0,1.33 0.57,2.63 1.72,3.91 1.15,1.28 2.67,2.34 4.57,3.18 1.9,0.84 3.96,1.26 6.17,1.26 2.47,0 4.31,-0.53 5.5,-1.59 1.19,-1.06 1.79,-2.3 1.79,-3.71 0,-0.8 -0.13,-1.46 -0.4,-1.99 1.86,0 3.29,0.24 4.31,0.73 1.02,0.49 1.52,1.08 1.52,1.79 0,1.33 -1.19,2.59 -3.58,3.78 -2.39,1.19 -5.48,1.79 -9.28,1.79 -4.15,0 -7.54,-1.13 -10.14,-3.38 -2.61,-2.25 -3.91,-5.02 -3.91,-8.29 0,-4.86 1.59,-8.6 4.77,-11.2 3.18,-2.61 7.78,-3.91 13.79,-3.91 4.33,0 8.07,0.58 11.2,1.72 3.14,1.15 6.56,2.74 10.28,4.77 2.83,1.5 5.13,2.61 6.9,3.32 1.77,0.71 3.67,1.06 5.7,1.06 2.92,0 5.28,-0.55 7.09,-1.66 1.81,-1.11 2.72,-2.67 2.72,-4.71 0,-1.77 -0.77,-3.45 -2.32,-5.04 -1.55,-1.59 -3.8,-2.9 -6.76,-3.91 -2.96,-1.02 -6.48,-1.52 -10.54,-1.52l-9.81 0zm0.27 -0.66c6.81,0 12,-2.72 15.58,-8.16 3.58,-5.44 5.37,-12.44 5.37,-21.02 0,-8.49 -1.79,-15.45 -5.37,-20.88 -3.58,-5.44 -8.77,-8.16 -15.58,-8.16 -6.81,0 -12.02,2.72 -15.65,8.16 -3.62,5.44 -5.44,12.4 -5.44,20.88 0,8.49 1.81,15.47 5.44,20.95 3.62,5.48 8.84,8.22 15.65,8.22z"/>
   </g>
  </g>
 </g>
</svg>
